<svg width="0" height="0" class="hidden">
    <symbol xmlns="http://www.w3.org/2000/svg" viewBox="0 0 24 24" id="arrow-right">
        <path d="M5 11C4.44772 11 4 11.4477 4 12C4 12.5523 4.44772 13 5 13V11ZM19 12L19.7071 12.7071C20.0976 12.3166 20.0976 11.6834 19.7071 11.2929L19 12ZM12.7071 4.29289C12.3166 3.90237 11.6834 3.90237 11.2929 4.29289C10.9024 4.68342 10.9024 5.31658 11.2929 5.70711L12.7071 4.29289ZM11.2929 18.2929C10.9024 18.6834 10.9024 19.3166 11.2929 19.7071C11.6834 20.0976 12.3166 20.0976 12.7071 19.7071L11.2929 18.2929ZM5 13H19V11H5V13ZM11.2929 5.70711L18.2929 12.7071L19.7071 11.2929L12.7071 4.29289L11.2929 5.70711ZM18.2929 11.2929L11.2929 18.2929L12.7071 19.7071L19.7071 12.7071L18.2929 11.2929Z"></path>
    </symbol>
    <symbol xmlns="http://www.w3.org/2000/svg" viewBox="0 0 24 24" id="arrow-left">
        <path d="M19 13C19.5523 13 20 12.5523 20 12C20 11.4477 19.5523 11 19 11V13ZM5 12L4.29289 11.2929C3.90237 11.6834 3.90237 12.3166 4.29289 12.7071L5 12ZM11.2929 19.7071C11.6834 20.0976 12.3166 20.0976 12.7071 19.7071C13.0976 19.3166 13.0976 18.6834 12.7071 18.2929L11.2929 19.7071ZM12.7071 5.70711C13.0976 5.31658 13.0976 4.68342 12.7071 4.29289C12.3166 3.90237 11.6834 3.90237 11.2929 4.29289L12.7071 5.70711ZM19 11H5V13H19V11ZM12.7071 18.2929L5.70711 11.2929L4.29289 12.7071L11.2929 19.7071L12.7071 18.2929ZM5.70711 12.7071L12.7071 5.70711L11.2929 4.29289L4.29289 11.2929L5.70711 12.7071Z"></path>
    </symbol>
     <symbol xmlns="http://www.w3.org/2000/svg" viewBox="0 0 13 21" id="arrow-forward">
        <path d="M0.48999 18.7967L2.25999 20.5667L12.16 10.6667L2.25999 0.766663L0.48999 2.53666L8.61999 10.6667L0.48999 18.7967Z"/>
    </symbol>
    <symbol xmlns="http://www.w3.org/2000/svg" viewBox="0 0 13 21" id="arrow-back">
        <path d="M12.51 2.53666L10.73 0.766663L0.839966 10.6667L10.74 20.5667L12.51 18.7967L4.37997 10.6667L12.51 2.53666Z"/>
    </symbol>
    <symbol xmlns="http://www.w3.org/2000/svg" viewBox="0 0 16 16" id="chevron-right">
        <path d="M6.66681 4L5.72681 4.94L8.78014 8L5.72681 11.06L6.66681 12L10.6668 8L6.66681 4Z"/>
    </symbol>
    <symbol xmlns="http://www.w3.org/2000/svg" viewBox="0 0 20 20" id="chevron-up">
        <path d="M6.175 12.8417L10 9.02502L13.825 12.8417L15 11.6667L10 6.66669L5 11.6667L6.175 12.8417Z" />
    </symbol>
    <symbol xmlns="http://www.w3.org/2000/svg" viewBox="0 0 16 16" id="help">
            <path fill-rule="evenodd" clip-rule="evenodd" d="M7.99998 1.33331C4.31998 1.33331 1.33331 4.31998 1.33331 7.99998C1.33331 11.68 4.31998 14.6666 7.99998 14.6666C11.68 14.6666 14.6666 11.68 14.6666 7.99998C14.6666 4.31998 11.68 1.33331 7.99998 1.33331ZM7.33331 12.6666V11.3333H8.66665V12.6666H7.33331ZM9.44665 8.11331L10.0466 7.49998C10.4266 7.11998 10.6666 6.58665 10.6666 5.99998C10.6666 4.52665 9.47331 3.33331 7.99998 3.33331C6.52665 3.33331 5.33331 4.52665 5.33331 5.99998H6.66665C6.66665 5.26665 7.26665 4.66665 7.99998 4.66665C8.73331 4.66665 9.33331 5.26665 9.33331 5.99998C9.33331 6.36665 9.18665 6.69998 8.93998 6.93998L8.11331 7.77998C7.63331 8.26665 7.33331 8.93331 7.33331 9.66665V9.99998H8.66665C8.66665 8.99998 8.96665 8.59998 9.44665 8.11331Z" />
    </symbol>
    <symbol xmlns="http://www.w3.org/2000/svg" viewBox="0 0 17 9" id="tooltip-caret">
        <path d="M14.5711 0.485289C15.462 0.485289 15.9081 1.56243 15.2782 2.1924L9.20711 8.26347C8.81658 8.654 8.18342 8.654 7.79289 8.26347L1.72183 2.1924C1.09187 1.56243 1.53803 0.485289 2.42894 0.485289L14.5711 0.485289Z"/>
    </symbol>
    <symbol xmlns="http://www.w3.org/2000/svg" viewBox="0 0 32 32" fill="none" id="form">
        <path fill-rule="evenodd" clip-rule="evenodd" d="M26.5002 4.33325H5.50022C4.85207 4.33325 4.33355 4.85177 4.33355 5.49992V26.4999C4.33355 27.0184 4.85207 27.6666 5.50022 27.6666H26.5002C27.0187 27.6666 27.6669 27.0184 27.6669 26.4999V5.49992C27.6669 4.85177 27.0187 4.33325 26.5002 4.33325ZM12.1113 9.51843H9.51874V12.111H12.1113V9.51843ZM22.4817 9.51843H14.7039V12.111H22.4817V9.51843ZM22.4817 14.7036H14.7039V17.2962H22.4817V14.7036ZM14.7039 19.8888H22.4817V22.4814H14.7039V19.8888ZM9.51874 14.7036H12.1113V17.2962H9.51874V14.7036ZM12.1113 19.8888H9.51874V22.4814H12.1113V19.8888ZM6.92615 25.0739H25.0743V6.9258H6.92615V25.0739Z" fill="white"/>
    </symbol>
    <symbol xmlns="http://www.w3.org/2000/svg" viewBox="0 0 20 20" id="home">
        <path d="M8.33342 16.6667V11.6667H11.6667V16.6667H15.8334V10H18.3334L10.0001 2.5L1.66675 10H4.16675V16.6667H8.33342Z" />
    </symbol>
    <symbol xmlns="http://www.w3.org/2000/svg" viewBox="0 0 24 24" id="facebook">
        <path d="M24 12C24 5.37258 18.6274 0 12 0C5.37258 0 0 5.37258 0 12C0 17.9895 4.3882 22.954 10.125 23.8542V15.4688H7.07812V12H10.125V9.35625C10.125 6.34875 11.9166 4.6875 14.6576 4.6875C15.9701 4.6875 17.3438 4.92188 17.3438 4.92188V7.875H15.8306C14.34 7.875 13.875 8.80008 13.875 9.75V12H17.2031L16.6711 15.4688H13.875V23.8542C19.6118 22.954 24 17.9895 24 12Z"/>
    </symbol>
    <symbol xmlns="http://www.w3.org/2000/svg" viewBox="0 0 24 24" id="linkedin">
        <path d="M22.2234 0H1.77187C0.792187 0 0 0.773438 0 1.72969V22.2656C0 23.2219 0.792187 24 1.77187 24H22.2234C23.2031 24 24 23.2219 24 22.2703V1.72969C24 0.773438 23.2031 0 22.2234 0ZM7.12031 20.4516H3.55781V8.99531H7.12031V20.4516ZM5.33906 7.43438C4.19531 7.43438 3.27188 6.51094 3.27188 5.37187C3.27188 4.23281 4.19531 3.30937 5.33906 3.30937C6.47813 3.30937 7.40156 4.23281 7.40156 5.37187C7.40156 6.50625 6.47813 7.43438 5.33906 7.43438ZM20.4516 20.4516H16.8937V14.8828C16.8937 13.5562 16.8703 11.8453 15.0422 11.8453C13.1906 11.8453 12.9094 13.2937 12.9094 14.7891V20.4516H9.35625V8.99531H12.7687V10.5609H12.8156C13.2891 9.66094 14.4516 8.70938 16.1813 8.70938C19.7859 8.70938 20.4516 11.0813 20.4516 14.1656V20.4516Z"/>
    </symbol>
    <symbol xmlns="http://www.w3.org/2000/svg" viewBox="0 0 24 20" id="twitter">
        <path d="M7.55016 19.75C16.6045 19.75 21.5583 12.2467 21.5583 5.74186C21.5583 5.53092 21.5536 5.3153 21.5442 5.10436C22.5079 4.40746 23.3395 3.54425 24 2.5553C23.1025 2.9546 22.1496 3.21538 21.1739 3.32874C22.2013 2.71291 22.9705 1.74547 23.3391 0.605767C22.3726 1.17856 21.3156 1.58261 20.2134 1.80061C19.4708 1.01156 18.489 0.489116 17.4197 0.314051C16.3504 0.138986 15.2532 0.32105 14.2977 0.832096C13.3423 1.34314 12.5818 2.15471 12.1338 3.14131C11.6859 4.12792 11.5754 5.23462 11.8195 6.2903C9.86249 6.19209 7.94794 5.6837 6.19998 4.7981C4.45203 3.91249 2.90969 2.66944 1.67297 1.14952C1.0444 2.23324 0.852057 3.51565 1.13503 4.73609C1.418 5.95654 2.15506 7.02345 3.19641 7.71999C2.41463 7.69517 1.64998 7.48468 0.965625 7.10592V7.16686C0.964925 8.30415 1.3581 9.40659 2.07831 10.2868C2.79852 11.167 3.80132 11.7706 4.91625 11.995C4.19206 12.1931 3.43198 12.222 2.69484 12.0794C3.00945 13.0574 3.62157 13.9129 4.44577 14.5263C5.26997 15.1398 6.26512 15.4806 7.29234 15.5012C5.54842 16.8711 3.39417 17.6141 1.17656 17.6106C0.783287 17.61 0.390399 17.5859 0 17.5384C2.25286 18.9837 4.87353 19.7514 7.55016 19.75Z" fill="white"/>
    </symbol>
    <symbol xmlns="http://www.w3.org/2000/svg" viewBox="0 0 24 24" id="youtube">
        <path d="M23.7609 4.20005C23.7609 4.20005 23.5266 2.54536 22.8047 1.8188C21.8906 0.862549 20.8688 0.857861 20.4 0.801611C17.0438 0.557861 12.0047 0.557861 12.0047 0.557861H11.9953C11.9953 0.557861 6.95625 0.557861 3.6 0.801611C3.13125 0.857861 2.10938 0.862549 1.19531 1.8188C0.473438 2.54536 0.24375 4.20005 0.24375 4.20005C0.24375 4.20005 0 6.14536 0 8.08599V9.90474C0 11.8454 0.239062 13.7907 0.239062 13.7907C0.239062 13.7907 0.473437 15.4454 1.19062 16.1719C2.10469 17.1282 3.30469 17.0954 3.83906 17.1985C5.76094 17.3813 12 17.4375 12 17.4375C12 17.4375 17.0438 17.4282 20.4 17.1891C20.8688 17.1329 21.8906 17.1282 22.8047 16.1719C23.5266 15.4454 23.7609 13.7907 23.7609 13.7907C23.7609 13.7907 24 11.85 24 9.90474V8.08599C24 6.14536 23.7609 4.20005 23.7609 4.20005ZM9.52031 12.1125V5.36724L16.0031 8.75161L9.52031 12.1125Z" fill="white"/>
    </symbol>
    <symbol xmlns="http://www.w3.org/2000/svg" viewBox="0 0 40 41" id="x">
        <path d="M31.6663 11.0326L29.3163 8.68262L19.9997 17.9993L10.683 8.68262L8.33301 11.0326L17.6497 20.3493L8.33301 29.666L10.683 32.0159L19.9997 22.6993L29.3163 32.0159L31.6663 29.666L22.3497 20.3493L31.6663 11.0326Z"/>
    </symbol>
    <symbol xmlns="http://www.w3.org/2000/svg" viewBox="0 0 24 24" fill="none" id="plus-circle">
        <path d="M12 8V16M8 12H16M22 12C22 17.5228 17.5228 22 12 22C6.47715 22 2 17.5228 2 12C2 6.47715 6.47715 2 12 2C17.5228 2 22 6.47715 22 12Z" stroke="#98A2B3" stroke-width="2" stroke-linecap="round" stroke-linejoin="round"/>
    </symbol>
    <symbol xmlns="http://www.w3.org/2000/svg" viewBox="0 0 24 24" fill="none" id="minus-circle">
        <path d="M8 12H16M22 12C22 17.5228 17.5228 22 12 22C6.47715 22 2 17.5228 2 12C2 6.47715 6.47715 2 12 2C17.5228 2 22 6.47715 22 12Z" stroke="#009739" stroke-width="2" stroke-linecap="round" stroke-linejoin="round"/>
    </symbol>
    <symbol xmlns="http://www.w3.org/2000/svg" viewBox="0 0 43 27" id="quotes">
        <path fill-rule="evenodd" clip-rule="evenodd" d="M32 -7.62939e-06H40L34.6666 10.6667H42.6666V26.6667H26.6666V10.6667L32 -7.62939e-06ZM5.33329 -7.62939e-06H13.3333L7.99996 10.6667H16V26.6667H-3.8147e-05V10.6667L5.33329 -7.62939e-06Z" />
    </symbol>
    <symbol xmlns="http://www.w3.org/2000/svg" viewBox="0 0 24 24" id="star-full">
        <path d="M12 17.27L18.18 21L16.54 13.97L22 9.24L14.81 8.63L12 2L9.19 8.63L2 9.24L7.46 13.97L5.82 21L12 17.27Z"/>
    </symbol>
    <symbol xmlns="http://www.w3.org/2000/svg" viewBox="0 0 24 24" id="star-half">
        <path fill-rule="evenodd" clip-rule="evenodd" d="M14.81 8.62L22 9.24L16.55 13.97L18.18 21L12 17.27L5.82 21L7.46 13.97L2 9.24L9.19 8.63L12 2L14.81 8.62ZM12 6.1V15.4L15.77 17.68L14.77 13.4L18.09 10.52L13.71 10.14L12 6.1Z"/>
    </symbol>
    <symbol xmlns="http://www.w3.org/2000/svg" viewBox="0 0 24 24" id="star-empty">
        <path fill-rule="evenodd" clip-rule="evenodd" d="M14.81 8.62L22 9.24L16.55 13.97L18.18 21L12 17.27L5.82 21L7.46 13.97L2 9.24L9.19 8.63L12 2L14.81 8.62ZM8.24 17.67L12 15.4L15.77 17.68L14.77 13.4L18.09 10.52L13.71 10.14L12 6.1L10.3 10.13L5.92 10.51L9.24 13.39L8.24 17.67Z"/>
    </symbol>
    <symbol xmlns="http://www.w3.org/2000/svg" viewBox="0 0 41 40" id="check-green">
        <g clip-path="url(#clip0_9148_171)">
        <path d="M15.75 26.95L8.80002 20L6.43335 22.35L15.75 31.6666L35.75 11.6667L33.4 9.31665L15.75 26.95Z" fill="#009739"/>
        </g>
        <defs>
        <clipPath id="clip0_9148_171">
        <rect width="40" height="40" fill="white" transform="translate(0.75)"/>
        </clipPath>
        </defs>
    </symbol>
    <symbol xmlns="http://www.w3.org/2000/svg" viewBox="0 0 20 20" id="check">
        <path d="M8.0001 12.78L5.2201 10L4.27344 10.94L8.0001 14.6667L16.0001 6.66668L15.0601 5.72668L8.0001 12.78Z"/>
    </symbol>
    <symbol xmlns="http://www.w3.org/2000/svg" viewBox="0 0 41 40" id="close-gray">
        <g clip-path="url(#clip0_9148_176)">
        <path d="M31.9167 10.6833L29.5667 8.33331L20.25 17.65L10.9334 8.33331L8.58337 10.6833L17.9 20L8.58337 29.3166L10.9334 31.6666L20.25 22.35L29.5667 31.6666L31.9167 29.3166L22.6 20L31.9167 10.6833Z" fill="#98A2B3"/>
        </g>
        <defs>
        <clipPath id="clip0_9148_176">
        <rect width="40" height="40" fill="white" transform="translate(0.25)"/>
        </clipPath>
        </defs>
    </symbol>
    <symbol xmlns="http://www.w3.org/2000/svg" viewBox="0 0 20 20" id="check-green-circle">
        <rect width="20" height="20" rx="10" fill="#95C8CC"/>
        <path d="M8.0001 12.7799L5.2201 9.9999L4.27344 10.9399L8.0001 14.6666L16.0001 6.66656L15.0601 5.72656L8.0001 12.7799Z" fill="#006D68"/>
    </symbol>
    <symbol xmlns="http://www.w3.org/2000/svg" viewBox="0 0 24 24" id="assessment">
        <path fill-rule="evenodd" clip-rule="evenodd" d="M5 3H19C20.1 3 21 3.9 21 5V19C21 20.1 20.1 21 19 21H5C3.9 21 3 20.1 3 19V5C3 3.9 3.9 3 5 3ZM7 17H9V10H7V17ZM13 17H11V7H13V17ZM15 17H17V13H15V17Z"/>
    </symbol>
    <symbol xmlns="http://www.w3.org/2000/svg" viewBox="0 0 40 40" id="hamburger">
        <path fill-rule="evenodd" clip-rule="evenodd" d="M5 13.3333V10H35V13.3333H5ZM5 21.6667H35V18.3333H5V21.6667ZM5 30H35V26.6667H5V30Z"/>
    </symbol>
    <symbol xmlns="http://www.w3.org/2000/svg" viewBox="0 0 25 24" id="warning">
        <path fill-rule="evenodd" clip-rule="evenodd" d="M23.5 21L12.5 2L1.5 21H23.5ZM11.5 18V16H13.5V18H11.5ZM11.5 14H13.5V10H11.5V14Z"/>
    </symbol>
    <symbol xmlns="http://www.w3.org/2000/svg" viewBox="0 0 24 24" id="add-box">
        <path fill-rule="evenodd" clip-rule="evenodd" d="M5 3H19C20.1 3 21 3.9 21 5V19C21 20.1 20.1 21 19 21H5C3.89 21 3 20.1 3 19V5C3 3.9 3.89 3 5 3ZM13 13H17V11H13V7H11V11H7V13H11V17H13V13Z" />
    </symbol>
    <symbol xmlns="http://www.w3.org/2000/svg" viewBox="0 0 32 33" id="access-time">
        <path fill-rule="evenodd" clip-rule="evenodd" d="M15.9867 3.1665C8.62675 3.1665 2.66675 9.13984 2.66675 16.4998C2.66675 23.8598 8.62675 29.8332 15.9867 29.8332C23.3601 29.8332 29.3334 23.8598 29.3334 16.4998C29.3334 9.13984 23.3601 3.1665 15.9867 3.1665ZM16.0001 27.1665C10.1067 27.1665 5.33341 22.3932 5.33341 16.4998C5.33341 10.6065 10.1067 5.83317 16.0001 5.83317C21.8934 5.83317 26.6667 10.6065 26.6667 16.4998C26.6667 22.3932 21.8934 27.1665 16.0001 27.1665ZM14.6667 9.83317H16.6667V16.8332L22.6667 20.3932L21.6667 22.0332L14.6667 17.8332V9.83317Z"/>
    </symbol>
    <symbol xmlns="http://www.w3.org/2000/svg" viewBox="0 0 32 33" id="edit">
        <path fill-rule="evenodd" clip-rule="evenodd" d="M27.6133 8.00658C28.1333 8.52658 28.1333 9.36658 27.6133 9.88658L25.1733 12.3266L20.1733 7.32658L22.6133 4.88658C23.1333 4.36658 23.9733 4.36658 24.4933 4.88658L27.6133 8.00658ZM4 28.4999V23.4999L18.7467 8.75325L23.7467 13.7532L9 28.4999H4Z"/>
    </symbol>
    <symbol xmlns="http://www.w3.org/2000/svg" viewBox="0 0 32 33" id="calendar-today">
        <path fill-rule="evenodd" clip-rule="evenodd" d="M25.3334 4.50016H26.6667C28.1334 4.50016 29.3334 5.70016 29.3334 7.16683V28.5002C29.3334 29.9668 28.1334 31.1668 26.6667 31.1668H5.33341C3.86675 31.1668 2.66675 29.9668 2.66675 28.5002V7.16683C2.66675 5.70016 3.86675 4.50016 5.33341 4.50016H6.66675V1.8335H9.33342V4.50016H22.6667V1.8335H25.3334V4.50016ZM5.33341 28.5002H26.6667V11.1668H5.33341V28.5002Z"/>
    </symbol>
    <symbol xmlns="http://www.w3.org/2000/svg" viewBox="0 0 24 24" id="twitter-x">
        <g clip-path="url(#clip0_3558_32531)">
            <path d="M14.227 10.1571L22.945 0H20.8791L13.3093 8.81931L7.26335 0H0.290039L9.43273 13.3364L0.290039 23.9877H2.35603L10.3499 14.6742L16.7349 23.9877H23.7082L14.2265 10.1571H14.227ZM11.3974 13.4538L10.471 12.1258L3.10044 1.55881H6.27368L12.2218 10.0867L13.1482 11.4147L20.8801 22.4998H17.7068L11.3974 13.4544V13.4538Z"/>
        </g>
        <defs>
            <clipPath id="clip0_3558_32531">
                <rect width="24" height="24"/>
            </clipPath>
        </defs>
    </symbol>
    <symbol xmlns="http://www.w3.org/2000/svg" viewBox="0 0 24 24" id="link-03">
        <path d="M9.99996 13C10.4294 13.5741 10.9773 14.0491 11.6065 14.3929C12.2357 14.7367 12.9315 14.9411 13.6466 14.9923C14.3617 15.0435 15.0795 14.9403 15.7513 14.6897C16.4231 14.4392 17.0331 14.047 17.54 13.54L20.54 10.54C21.4507 9.59695 21.9547 8.33394 21.9433 7.02296C21.9319 5.71198 21.4061 4.45791 20.479 3.53087C19.552 2.60383 18.2979 2.07799 16.987 2.0666C15.676 2.0552 14.413 2.55918 13.47 3.46997L11.75 5.17997M14 11C13.5705 10.4258 13.0226 9.95078 12.3934 9.60703C11.7642 9.26327 11.0684 9.05885 10.3533 9.00763C9.63816 8.95641 8.92037 9.0596 8.24861 9.31018C7.57685 9.56077 6.96684 9.9529 6.45996 10.46L3.45996 13.46C2.54917 14.403 2.04519 15.666 2.05659 16.977C2.06798 18.288 2.59382 19.542 3.52086 20.4691C4.4479 21.3961 5.70197 21.9219 7.01295 21.9333C8.32393 21.9447 9.58694 21.4408 10.53 20.53L12.24 18.82" stroke-width="2" stroke-linecap="round" stroke-linejoin="round"/>
    </symbol>
    <symbol xmlns="http://www.w3.org/2000/svg" viewBox="0 0 20 20" id="keyboard-double-arrow-up">
        <path d="M6.16667 15.3334L5 14.1667L10 9.16675L15 14.1667L13.8333 15.3334L10 11.5209L6.16667 15.3334ZM6.16667 10.3334L5 9.16675L10 4.16675L15 9.16675L13.8333 10.3334L10 6.52091L6.16667 10.3334Z" />
    </symbol>
    <symbol xmlns="http://www.w3.org/2000/svg" viewBox="0 0 20 20" id="search">
        <path fill-rule="evenodd" clip-rule="evenodd" d="M12.2583 11.6667H12.9167L17.075 15.8333L15.8333 17.075L11.6667 12.9167V12.2583L11.4417 12.025C10.4917 12.8417 9.25833 13.3333 7.91667 13.3333C4.925 13.3333 2.5 10.9083 2.5 7.91667C2.5 4.925 4.925 2.5 7.91667 2.5C10.9083 2.5 13.3333 4.925 13.3333 7.91667C13.3333 9.25833 12.8417 10.4917 12.025 11.4417L12.2583 11.6667ZM4.16667 7.91667C4.16667 9.99167 5.84167 11.6667 7.91667 11.6667C9.99167 11.6667 11.6667 9.99167 11.6667 7.91667C11.6667 5.84167 9.99167 4.16667 7.91667 4.16667C5.84167 4.16667 4.16667 5.84167 4.16667 7.91667Z" />
    </symbol>
    <symbol xmlns="http://www.w3.org/2000/svg" viewBox="0 0 16 16" id="checkbox-checked">
        <rect x="0.5" y="0.5" width="15" height="15" fill="#F4FBF8"/>
        <path d="M6.50002 10.085L4.41502 8.00004L3.70502 8.70504L6.50002 11.5L12.5 5.50004L11.795 4.79504L6.50002 10.085Z" fill="#00685E"/>
        <rect x="0.5" y="0.5" width="15" height="15" stroke="#00685E"/>
    </symbol>
    <symbol xmlns="http://www.w3.org/2000/svg" viewBox="0 0 16 16" id="checkbox-unchecked">
        <rect x="0.5" y="0.5" width="15" height="15" fill="white"/>
        <rect x="0.5" y="0.5" width="15" height="15" stroke="#667085"/>
    </symbol>
    <symbol xmlns="http://www.w3.org/2000/svg" viewBox="0 0 16 16" id="close-green-bg">
        <path fill-rule="evenodd" clip-rule="evenodd" d="M1.33331 8.00004C1.33331 4.31337 4.31331 1.33337 7.99998 1.33337C11.6866 1.33337 14.6666 4.31337 14.6666 8.00004C14.6666 11.6867 11.6866 14.6667 7.99998 14.6667C4.31331 14.6667 1.33331 11.6867 1.33331 8.00004ZM10.3933 11.3334L11.3333 10.3934L8.93998 8.00004L11.3333 5.60671L10.3933 4.66671L7.99998 7.06004L5.60665 4.66671L4.66665 5.60671L7.05998 8.00004L4.66665 10.3934L5.60665 11.3334L7.99998 8.94004L10.3933 11.3334Z" fill="#009739"/>
    </symbol>
    <symbol xmlns="http://www.w3.org/2000/svg" viewBox="0 0 24 24" id="login">
        <g clip-path="url(#clip0_10131_7366)">
            <path d="M11 7L9.6 8.4L12.2 11H2V13H12.2L9.6 15.6L11 17L16 12L11 7ZM20 19H12V21H20C21.1 21 22 20.1 22 19V5C22 3.9 21.1 3 20 3H12V5H20V19Z" />
        </g>
        <defs>
            <clipPath id="clip0_10131_7366">
                <rect width="24" height="24" />
            </clipPath>
        </defs>
    </symbol>
    <symbol xmlns="http://www.w3.org/2000/svg" viewBox="0 0 16 16" id="chevron-down">
        <path d="M4.94 5.72668L8 8.78002L11.06 5.72668L12 6.66668L8 10.6667L4 6.66668L4.94 5.72668Z" />
    </symbol>
    <symbol xmlns="http://www.w3.org/2000/svg"  viewBox="0 0 24 24" id="chevron-left">
        <path d="M15.41 7.41L14 6L8 12L14 18L15.41 16.59L10.83 12L15.41 7.41Z" />
    </symbol>
    <symbol xmlns="http://www.w3.org/2000/svg" viewBox="0 0 16 20" id="blog-icon">
        <path d="M16 6L10 0H2C0.9 0 0.0100002 0.9 0.0100002 2L0 18C0 19.1 0.89 20 1.99 20H8V17.05L16 9.05V6ZM9 7V1.5L14.5 7H9Z" fill="#009739"></path>
    </symbol>
    <symbol fill="none" xmlns="http://www.w3.org/2000/svg" viewBox="0 0 24 24" id="edit-document">
        <g clip-path="url(#clip0_2841_140226)">
            <path d="M14 19.88V22H16.12L21.29 16.83L19.17 14.71L14 19.88Z" fill="#009739"></path>
            <path d="M20 8L14 2H6C4.9 2 4.01 2.9 4.01 4L4 20C4 21.1 4.89 22 5.99 22H12V19.05L20 11.05V8ZM13 9V3.5L18.5 9H13Z" fill="#009739"></path>
            <path d="M22.71 14L22 13.29C21.61 12.9 20.98 12.9 20.59 13.29L19.88 14L22 16.12L22.71 15.41C23.1 15.02 23.1 14.39 22.71 14Z" fill="#009739"></path>
        </g>
        <defs>
        <clipPath id="clip0_2841_140226">
            <rect width="24" height="24" fill="white"></rect>
        </clipPath>
        </defs>
    </symbol>
    <symbol xmlns="http://www.w3.org/2000/svg" viewBox="0 0 24 25" id="build">
        <path d="M12.09 3.18974C10.08 1.17974 7.07 0.76974 4.65 1.94974L8.99 6.28974L5.99 9.28974L1.65 4.94974C0.480003 7.37974 0.890003 10.3697 2.9 12.3797C4.76 14.2397 7.48 14.7297 9.79 13.8597L18.9 22.9697C19.29 23.3597 19.92 23.3597 20.31 22.9697L22.61 20.6697C23 20.2797 23 19.6497 22.61 19.2597L13.54 10.1797C14.46 7.83974 13.98 5.07974 12.09 3.18974Z" fill="#009739"></path>
    </symbol>
    <symbol xmlns="http://www.w3.org/2000/svg" viewBox="0 0 24 25" id="download">
        <path fill-rule="evenodd" clip-rule="evenodd" d="M15 9.8999H19L12 16.8999L5 9.8999H9V3.8999H15V9.8999ZM5 20.8999V18.8999H19V20.8999H5Z" fill="#009739"></path>
    </symbol>
    <symbol xmlns="http://www.w3.org/2000/svg" viewBox="0 0 24 25" id="find-in-page">
        <path fill-rule="evenodd" clip-rule="evenodd" d="M20 8.14014V19.7301L16.17 15.8901C16.69 15.1001 17 14.1601 17 13.1401C17 10.3801 14.76 8.14014 12 8.14014C9.24 8.14014 7 10.3801 7 13.1401C7 15.9001 9.24 18.1401 12 18.1401C13.02 18.1401 13.96 17.8301 14.76 17.3101L19.19 21.7401C18.85 21.9901 18.45 22.1401 18 22.1401H5.99C4.89 22.1401 4 21.2401 4 20.1401L4.01 4.14014C4.01 3.04014 4.9 2.14014 6 2.14014H14L20 8.14014ZM12 16.1401C10.34 16.1401 9 14.8001 9 13.1401C9 11.4801 10.34 10.1401 12 10.1401C13.66 10.1401 15 11.4801 15 13.1401C15 14.8001 13.66 16.1401 12 16.1401Z" fill="#009739"></path>
    </symbol>
    <symbol xmlns="http://www.w3.org/2000/svg" viewBox="0 0 24 25" id="map">
        <path fill-rule="evenodd" clip-rule="evenodd" d="M20.34 3.55002L20.5 3.52002C20.78 3.52002 21 3.74002 21 4.02002V19.14C21 19.37 20.85 19.55 20.64 19.62L15 21.52L9 19.42L3.66 21.49L3.5 21.52C3.22 21.52 3 21.3 3 21.02V5.90002C3 5.67002 3.15 5.49002 3.36 5.42002L9 3.52002L15 5.62002L20.34 3.55002ZM9 17.3L15 19.41V7.74002L9 5.63002V17.3Z" fill="#009739"></path>
    </symbol>
    <symbol xmlns="http://www.w3.org/2000/svg" viewBox="0 0 24 25" id="news-feed">
        <g clip-path="url(#clip0_2841_140266)">
        <path d="M16 3.76001H5C3.9 3.76001 3 4.66001 3 5.76001V19.76C3 20.86 3.9 21.76 5 21.76H19C20.1 21.76 21 20.86 21 19.76V8.76001L16 3.76001ZM7 7.76001H12V9.76001H7V7.76001ZM17 17.76H7V15.76H17V17.76ZM17 13.76H7V11.76H17V13.76ZM15 9.76001V5.76001L19 9.76001H15Z" fill="#009739"></path>
        </g>
        <defs>
        <clipPath id="clip0_2841_140266">
            <rect width="24" height="24" fill="white" transform="translate(0 0.76001)"></rect>
        </clipPath>
        </defs>
    </symbol>
    <symbol xmlns="http://www.w3.org/2000/svg" viewBox="0 0 24 25" id="video-library">
        <g clip-path="url(#clip0_2841_140251)">
        <path d="M4 6.38H2V20.38C2 21.48 2.9 22.38 4 22.38H18V20.38H4V6.38ZM20 2.38H8C6.9 2.38 6 3.28 6 4.38V16.38C6 17.48 6.9 18.38 8 18.38H20C21.1 18.38 22 17.48 22 16.38V4.38C22 3.28 21.1 2.38 20 2.38ZM12 14.88V5.88L18 10.38L12 14.88Z" fill="#009739"></path>
        </g>
        <defs>
        <clipPath id="clip0_2841_140251">
            <rect width="24" height="24" fill="white" transform="translate(0 0.380005)"></rect>
        </clipPath>
        </defs>
    </symbol>
    <symbol xmlns="http://www.w3.org/2000/svg" viewBox="0 0 24 24" id="dollar">
        <g clip-path="url(#clip0_4355_3885)">
        <path d="M11.8 10.9002C9.53 10.3102 8.8 9.70024 8.8 8.75024C8.8 7.66024 9.81 6.90024 11.5 6.90024C13.28 6.90024 13.94 7.75024 14 9.00024H16.21C16.14 7.28024 15.09 5.70024 13 5.19024V3.00024H10V5.16024C8.06 5.58024 6.5 6.84024 6.5 8.77024C6.5 11.0802 8.41 12.2302 11.2 12.9002C13.7 13.5002 14.2 14.3802 14.2 15.3102C14.2 16.0002 13.71 17.1002 11.5 17.1002C9.44 17.1002 8.63 16.1802 8.52 15.0002H6.32C6.44 17.1902 8.08 18.4202 10 18.8302V21.0002H13V18.8502C14.95 18.4802 16.5 17.3502 16.5 15.3002C16.5 12.4602 14.07 11.4902 11.8 10.9002Z" fill="#667085"/>
        </g>
        <defs>
        <clipPath id="clip0_4355_3885">
        <rect width="24" height="24" fill="white" transform="translate(0 0.000244141)"/>
        </clipPath>
        </defs>
    </symbol>
    <symbol xmlns="http://www.w3.org/2000/svg" viewBox="0 0 16 16" id="help-circle">
        <path fill-rule="evenodd" clip-rule="evenodd" d="M8.00001 1.33362C4.32001 1.33362 1.33334 4.32028 1.33334 8.00029C1.33334 11.6803 4.32001 14.667 8.00001 14.667C11.68 14.667 14.6667 11.6803 14.6667 8.00029C14.6667 4.32028 11.68 1.33362 8.00001 1.33362ZM7.33334 12.667V11.3336H8.66668V12.667H7.33334ZM9.44668 8.11362L10.0467 7.50028C10.4267 7.12029 10.6667 6.58695 10.6667 6.00028C10.6667 4.52695 9.47334 3.33362 8.00001 3.33362C6.52668 3.33362 5.33334 4.52695 5.33334 6.00028H6.66668C6.66668 5.26695 7.26668 4.66695 8.00001 4.66695C8.73334 4.66695 9.33334 5.26695 9.33334 6.00028C9.33334 6.36695 9.18668 6.70028 8.94001 6.94028L8.11334 7.78028C7.63334 8.26695 7.33334 8.93362 7.33334 9.66695V10.0003H8.66668C8.66668 9.00028 8.96668 8.60029 9.44668 8.11362Z" fill="#98A2B3"/>
    </symbol>
    <symbol xmlns="http://www.w3.org/2000/svg" viewBox="0 0 24 24" id="refresh">
        <path d="M17.6498 6.35C16.1998 4.9 14.2098 4 11.9998 4C7.57977 4 4.00977 7.58 4.00977 12C4.00977 16.42 7.57977 20 11.9998 20C15.7298 20 18.8398 17.45 19.7298 14H17.6498C16.8298 16.33 14.6098 18 11.9998 18C8.68977 18 5.99977 15.31 5.99977 12C5.99977 8.69 8.68977 6 11.9998 6C13.6598 6 15.1398 6.69 16.2198 7.78L12.9998 11H19.9998V4L17.6498 6.35Z" fill="#101828"/>
    </symbol>
</svg>
